<?xml version="1.0" standalone="no"?>
<!DOCTYPE svg PUBLIC "-//W3C//DTD SVG 20010904//EN"
 "http://www.w3.org/TR/2001/REC-SVG-20010904/DTD/svg10.dtd">
<svg version="1.0" xmlns="http://www.w3.org/2000/svg"
 width="99.000000pt" height="126.000000pt" viewBox="0 0 99.000000 126.000000"
 preserveAspectRatio="xMidYMid meet">

<g transform="translate(0.000000,126.000000) scale(0.100000,-0.100000)"
fill="#000000" stroke="none">
<path d="M75 1208 c-3 -7 -4 -278 -3 -603 l3 -590 118 -3 117 -3 0 252 0 251
98 -4 c110 -5 152 -21 183 -71 10 -18 48 -120 84 -227 l64 -195 121 -3 c66 -1
120 -1 120 0 0 2 -31 96 -68 208 -86 256 -110 304 -174 345 -36 23 -35 32 5
49 54 22 133 102 157 159 17 39 23 71 23 128 0 170 -101 279 -283 308 -97 16
-559 14 -565 -1z m543 -202 c49 -25 72 -70 72 -141 0 -72 -22 -114 -73 -138
-27 -13 -65 -17 -171 -17 l-136 0 0 161 0 162 138 -5 c102 -4 146 -9 170 -22z"/>
</g>
</svg>
